:SAMPLES-PER-SECOND 30
:FULLY-SPECIFIED
:DEGREES
19
root  21.5063 30.3905 18.7766 28.0966 -4.14697 -0.618797
RightUpLeg  -65.3552 3.171 3.53768
RightLeg  84.4981 -0.25278 -8.73178
RightFoot  -35.9361 0.0192217 1.21403
RightToes  -16.261 -0.0616104 -0.1461
Spine  10.9917 0.542032 1.76041
Spine1  0.181308 0.0274612 4.17047
HEad  -12.5492 -8.42421 -0.775445
LeftShoulder1  -7.76503e-019 -2.42657e-020 -1.34036e-021
LeftArm  -31.1013 57.8666 -85.264
LeftForeArm  13.8566 -72.8884 -40.4867
LeftHand  2.21871 33.7301 9.22655
RightShoulder  7.45443e-017 -2.42657e-020 1.96277e-018
RightArm  -36.5232 -53.7595 83.9845
RightForeArm  54.4264 78.6034 75.5812
RightHand  -14.9671 40.8015 -36.0112
LeftUpLeg  -66.1956 -1.54104 -2.1519
LeftLeg  86.7323 0.0583167 14.2166
LeftFoot  -29.0094 -0.15575 -2.12548
LeftToes  -34.1229 1.06988e-006 1.21085e-007
20
root  21.564 29.1775 18.9818 26.5069 -4.12535 -0.555129
RightUpLeg  -65.4882 3.9923 3.98172
RightLeg  88.9249 0.451445 -9.5721
RightFoot  -38.075 0.0563874 1.33405
RightToes  -9.11706 -0.0294404 -0.0841007
Spine  9.39906 1.13944 1.89226
Spine1  -1.81725 0.268677 3.39081
HEad  -10.3452 -7.57438 0.16867
LeftShoulder1  -7.76503e-019 -2.42657e-020 -1.34036e-021
LeftArm  -17.5073 31.2695 -80.5137
LeftForeArm  59.2289 -78.8233 -78.3237
LeftHand  15.1006 56.6059 30.0901
RightShoulder  7.45443e-017 -2.42657e-020 1.96277e-018
RightArm  -21.261 -27.795 79.7103
RightForeArm  91.6393 78.3743 110.179
RightHand  -29.1802 64.1847 -43.9721
LeftUpLeg  -65.6503 -2.22023 -2.68561
LeftLeg  90.5699 -1.09401 17.9298
LeftFoot  -32.0227 -0.295012 -2.67505
LeftToes  -36.3444 1.06988e-006 1.21085e-007
21
root  21.6171 28.9611 19.2806 21.4825 -1.63318 0.432512
RightUpLeg  -58.8374 1.99426 4.41186
RightLeg  89.4615 0.614141 -12.287
RightFoot  -41.5945 0.181012 1.72731
RightToes  -9.09284 -0.0293446 -0.0838839
Spine  10.9935 -0.601195 1.77356
Spine1  -3.94736 -0.134142 3.3379
HEad  -7.33384 -7.88904 0.771653
LeftShoulder1  -7.76503e-019 -2.42657e-020 -1.34036e-021
LeftArm  -12.5173 0.777623 -80.4828
LeftForeArm  76.2335 -79.1572 -92.6321
LeftHand  30.4015 68.359 45.8174
RightShoulder  7.45443e-017 -2.42657e-020 1.96277e-018
RightArm  -11.4275 5.26149 77.4664
RightForeArm  100.743 79.6345 101.882
RightHand  -26.0118 55.4562 -45.5357
LeftUpLeg  -59.5696 -3.44579 -4.13926
LeftLeg  90.6072 -1.17877 19.3818
LeftFoot  -34.079 -0.359697 -2.81259
LeftToes  -34.8839 1.06988e-006 1.21085e-007
22
root  21.466 29.5034 19.6944 21.2338 -0.847171 -0.0417908
RightUpLeg  -56.1216 2.70107 5.08265
RightLeg  86.376 -0.107703 -13.6767
RightFoot  -40.7705 0.220958 1.90741
RightToes  -9.89502 -0.0325654 -0.0910409
Spine  7.98488 -1.26062 1.57812
Spine1  -4.4 -0.288407 4.23136
HEad  -8.77244 -8.19587 2.28106
LeftShoulder1  -7.76503e-019 -2.42657e-020 -1.34036e-021
LeftArm  -12.6455 -27.3603 -74.3125
LeftForeArm  80.1988 -76.7196 -118.656
LeftHand  20.2114 56.668 39.5015
RightShoulder  7.45443e-017 -2.42657e-020 1.96277e-018
RightArm  -6.1891 33.9239 75.5871
RightForeArm  101.362 79.7868 100.374
RightHand  -19.0073 48.284 -38.7077
LeftUpLeg  -57.4687 -2.13456 -3.82451
LeftLeg  87.9054 -0.229733 18.0866
LeftFoot  -33.3174 -0.295016 -2.55524
LeftToes  -32.3801 1.06988e-006 1.21085e-007
23
root  21.4433 31.6268 20.6044 21.5199 0.229273 0.190588
RightUpLeg  -50.6911 1.16187 4.57204
RightLeg  77.7013 -1.87348 -11.6446
RightFoot  -35.6494 0.0995981 1.59267
RightToes  -11.1024 -0.0376013 -0.101727
Spine  5.43526 -2.34873 1.37712
Spine1  -4.28483 -0.609386 4.46058
HEad  -7.88946 -8.00006 2.40532
LeftShoulder1  -7.76503e-019 -2.42657e-020 -1.34036e-021
LeftArm  -24.955 -49.9387 -57.4535
LeftForeArm  88.5444 -74.1483 -132.131
LeftHand  9.53094 45.3437 25.5065
RightShoulder  7.45443e-017 -2.42657e-020 1.96277e-018
RightArm  -9.75019 56.5259 64.2411
RightForeArm  70.8752 79.0338 90.2218
RightHand  -15.0193 39.8106 -36.9113
LeftUpLeg  -52.2113 -1.61768 -3.65788
LeftLeg  79.5653 2.03016 15.1062
LeftFoot  -28.4035 -0.139287 -2.06768
LeftToes  -32.3029 1.06988e-006 1.21085e-007
24
root  21.3127 35.5011 22.4953 18.4886 1.11625 -0.0832193
RightUpLeg  -37.0041 -1.30496 3.69591
RightLeg  62.1994 -3.31783 -7.36807
RightFoot  -27.2147 -0.0307313 1.10407
RightToes  -16.9993 -0.0653704 -0.152269
Spine  4.84695 -4.0132 0.931351
Spine1  -3.88732 -1.03197 5.73318
HEad  1.88885 -8.6237 0.975027
LeftShoulder1  -7.76503e-019 -2.42657e-020 -1.34036e-021
LeftArm  -50.2798 -57.5232 -31.3723
LeftForeArm  88.9603 -73.1772 -135.384
LeftHand  5.74579 39.9757 18.3662
RightShoulder  7.45443e-017 -2.42657e-020 1.96277e-018
RightArm  -25.7219 64.5501 47.4494
RightForeArm  71.6443 78.4379 100.784
RightHand  -19.6523 52.8734 -36.6962
LeftUpLeg  -38.53 0.685586 -2.13251
LeftLeg  63.8726 2.82737 6.92761
LeftFoot  -19.6833 0.0450428 -1.00132
LeftToes  -32.6125 1.06988e-006 1.21085e-007
25
root  21.2553 39.6424 24.9343 15.7244 1.00353 -0.597977
RightUpLeg  -25.2399 0.40163 1.62597
RightLeg  48.4741 -4.75078 -6.07217
RightFoot  -9.99194 -0.0816624 1.18264
RightToes  -27.415 -0.126531 -0.233604
Spine  2.00882 -4.47842 1.43946
Spine1  -2.69123 -1.17584 6.06434
HEad  17.6488 -8.45901 -2.62242
LeftShoulder1  -7.76503e-019 -2.42657e-020 -1.34036e-021
LeftArm  -61.2885 -56.8988 -20.5096
LeftForeArm  90.352 -72.9464 -136.252
LeftHand  4.88482 37.7303 16.8798
RightShoulder  7.45443e-017 -2.42657e-020 1.96277e-018
RightArm  -33.7108 66.3053 37.0023
RightForeArm  60.5988 78.813 83.534
RightHand  -16.6531 38.433 -41.8507
LeftUpLeg  -26.5153 0.92806 0.411704
LeftLeg  49.595 0.0769864 0.540152
LeftFoot  -1.70237 0.0290129 -0.222334
LeftToes  -32.086 1.06988e-006 1.21085e-007
26
root  21.2118 43.6177 26.6561 15.5956 0.299001 -0.847988
RightUpLeg  -21.0745 3.41734 0.58157
RightLeg  46.9529 -11.5069 -13.1997
RightFoot  -2.64617 -0.213627 2.57159
RightToes  -6.58996 -0.0199444 -0.0612747
Spine  -1.91629 -3.84114 2.1717
Spine1  -0.228442 -1.10048 6.48612
HEad  27.3136 -6.28573 -7.07287
LeftShoulder1  -7.76503e-019 -2.42657e-020 -1.34036e-021
LeftArm  -61.8673 -53.967 -15.8944
LeftForeArm  73.0848 -77.0099 -114.963
LeftHand  4.56345 37.8559 15.7654
RightShoulder  7.45443e-017 -2.42657e-020 1.96277e-018
RightArm  -35.263 67.0679 29.4315
RightForeArm  25.7794 74.7863 45.7509
RightHand  -14.8532 38.2952 -37.7748
LeftUpLeg  -23.0846 2.69547 1.37215
LeftLeg  47.4636 -0.0957813 0.314171
LeftFoot  12.6388 -0.0319101 -0.21488
LeftToes  -3.04658 1.06988e-006 1.21085e-007
27
root  21.1323 46.7472 27.0083 14.4699 -0.000255376 -0.613471
RightUpLeg  -22.6145 -1.51734 0.0815842
RightLeg  55.2517 -3.44324 -5.75462
RightFoot  6.84151 -0.133173 1.12538
RightToes  -10.0251 -0.033097 -0.0921972
Spine  0.427763 -2.32991 1.61653
Spine1  -0.316787 -0.635649 5.27701
HEad  28.1769 -7.21717 -5.71169
LeftShoulder1  -7.76503e-019 -2.42657e-020 -1.34036e-021
LeftArm  -52.5322 -49.9339 -16.9358
LeftForeArm  46.3557 -78.3 -78.3195
LeftHand  4.48093 35.8432 16.5437
RightShoulder  7.45443e-017 -2.42657e-020 1.96277e-018
RightArm  -28.5114 60.9232 32.9955
RightForeArm  24.3822 72.4786 36.7975
RightHand  -15.0092 40.4068 -36.4139
LeftUpLeg  -25.3378 4.5314 1.3612
LeftLeg  57.6958 -3.68375 -5.74125
LeftFoot  7.62382 -0.152754 0.636525
LeftToes  -26.1702 1.06988e-006 1.21085e-007
28
root  21.0221 49.5956 27.2287 11.3637 0.314768 -0.473134
RightUpLeg  -25.6215 -5.90084 0.424568
RightLeg  70.6362 -1.44677 -5.47067
RightFoot  4.95778 -0.10257 0.95307
RightToes  -6.30515 -0.0189375 -0.0586764
Spine  6.90597 -2.5302 0.310457
Spine1  -0.849138 -0.641907 6.28198
HEad  29.307 -7.60529 -5.6994
LeftShoulder1  -7.76503e-019 -2.42657e-020 -1.34036e-021
LeftArm  -42.2549 -43.3504 -20.6805
LeftForeArm  19.4791 -74.7877 -47.541
LeftHand  4.88018 37.8603 16.7953
RightShoulder  7.45443e-017 -2.42657e-020 1.96277e-018
RightArm  -18.5046 53.9467 40.2102
RightForeArm  21.2489 70.6468 32.4191
RightHand  -13.3687 37.3317 -35.0022
LeftUpLeg  -29.3344 6.24298 1.52872
LeftLeg  74.1746 -2.09812 -7.3623
LeftFoot  4.35749 -0.150158 0.897476
LeftToes  -32.2636 1.06988e-006 1.21085e-007
29
root  20.9348 51.874 27.604 10.6738 0.654159 -0.831555
RightUpLeg  -33.7301 -6.71574 2.00798
RightLeg  88.534 0.310357 -1.37499
RightFoot  -2.59105 -0.0361217 0.241647
RightToes  -15.225 -0.0564698 -0.137366
Spine  11.0113 -2.34987 -0.374851
Spine1  -0.183209 -0.647494 6.35907
HEad  27.814 -8.39966 -5.15226
LeftShoulder1  -7.76503e-019 -2.42657e-020 -1.34036e-021
LeftArm  -34.2197 -38.8654 -23.318
LeftForeArm  4.9727 -67.2299 -28.2044
LeftHand  5.16444 38.4082 17.417
RightShoulder  7.45443e-017 -2.42657e-020 1.96277e-018
RightArm  -12.9779 46.5787 45.4119
RightForeArm  18.467 66.3188 24.9251
RightHand  -14.349 40.3857 -34.9313
LeftUpLeg  -38.5379 6.54784 1.87473
LeftLeg  92.7075 -0.156702 -1.38856
LeftFoot  -3.36954 0.0116055 0.124951
LeftToes  -30.7584 1.06988e-006 1.21085e-007
30
root  20.8502 53.5424 28.0995 10.9481 0.381481 -1.09065
RightUpLeg  -44.6178 -6.41352 3.95146
RightLeg  105.982 1.04699 -2.12314
RightFoot  -12.5193 -0.0805413 0.410265
RightToes  -19.2565 -0.0773528 -0.170817
Spine  14.7123 -1.35223 -1.07114
Spine1  -1.03541 -0.383946 5.50362
HEad  24.9885 -9.82734 -3.3169
LeftShoulder1  -7.76503e-019 -2.42657e-020 -1.34036e-021
LeftArm  -26.3079 -34.5406 -26.1537
LeftForeArm  0.53939 -60.187 -20.1179
LeftHand  5.15637 38.4443 17.3716
RightShoulder  7.45443e-017 -2.42657e-020 1.96277e-018
RightArm  -9.0693 38.3244 50.2071
RightForeArm  19.2895 61.8387 19.6337
RightHand  -14.1606 40.6783 -34.2832
LeftUpLeg  -50.2017 7.20024 2.12309
LeftLeg  109.507 -1.89617 4.04665
LeftFoot  -11.0578 0.0685165 -0.868913
LeftToes  -27.8945 1.06988e-006 1.21085e-007
